<?xml version="1.0" encoding="UTF-8"?>
<svg width="32" height="32" viewBox="0 0 32 32" fill="none" xmlns="http://www.w3.org/2000/svg">
  <path d="M16 2L6 7V14C6 20 10 26 16 28C22 26 26 20 26 14V7L16 2Z" stroke="#ff6b00" stroke-width="1.5" fill="none"/>
  <ellipse cx="16" cy="15" rx="6" ry="2.5" fill="#ff6b00"/>
  <path d="M12 8C10 6 8 7 7 9M12 8C14 6 16 7 17 9M12 8C11 7 10 5 9 4M12 8C13 7 14 5 15 4" stroke="#ff6b00" stroke-width="1" stroke-linecap="round"/>
  <path d="M22 8C24 6 26 7 27 9M22 8C20 6 18 7 17 9M22 8C23 7 24 5 25 4M22 8C21 7 20 5 19 4" stroke="#ff6b00" stroke-width="1" stroke-linecap="round"/>
</svg>
